# MagicaVoxel @ Ephtracy

# group
g room

# material
mtllib room.mtl
usemtl palette

# normals
vn -1 0 0
vn 1 0 0
vn 0 0 1
vn 0 0 -1
vn 0 -1 0
vn 0 1 0

# texcoords
vt 0.00195312 0.5
vt 0.306641 0.5
vt 0.455078 0.5
vt 0.462891 0.5

# verts
v -20 0 20
v -20 0 -20
v -20 1 -5
v -20 1 -8
v -20 2 19
v -20 2 -5
v -20 2 -8
v -20 2 -19
v -20 21 5
v -20 21 4
v -20 23 8
v -20 23 7
v -20 23 5
v -20 23 4
v -20 23 -2
v -20 23 -3
v -20 24 8
v -20 24 7
v -20 24 -0
v -20 24 -1
v -20 24 -2
v -20 24 -3
v -20 25 8
v -20 25 6
v -20 25 -0
v -20 25 -1
v -20 26 8
v -20 26 6
v -20 27 -1
v -20 27 -2
v -20 28 1
v -20 28 -0
v -20 28 -1
v -20 28 -2
v -20 29 1
v -20 29 -0
v -20 39 20
v -20 39 19
v -20 39 -19
v -20 39 -20
v -20 40 20
v -20 40 -20
v 19 2 19
v 19 2 -19
v 19 3 19
v 19 19 6
v 19 19 5
v 19 19 4
v 19 19 3
v 19 21 6
v 19 21 5
v 19 21 4
v 19 21 3
v 19 22 6
v 19 22 5
v 19 23 -7
v 19 23 -8
v 19 24 6
v 19 24 5
v 19 24 -4
v 19 24 -5
v 19 24 -7
v 19 24 -8
v 19 25 -4
v 19 25 -5
v 19 25 -6
v 19 26 -4
v 19 26 -5
v 19 26 -6
v 19 26 -7
v 19 27 -4
v 19 27 -5
v 19 27 -6
v 19 27 -7
v 19 40 19
v 19 40 -19
v -19 2 19
v -19 2 -19
v -19 3 19
v -19 21 5
v -19 21 4
v -19 23 8
v -19 23 7
v -19 23 5
v -19 23 4
v -19 23 -2
v -19 23 -3
v -19 24 8
v -19 24 7
v -19 24 -0
v -19 24 -1
v -19 24 -2
v -19 24 -3
v -19 25 8
v -19 25 6
v -19 25 -0
v -19 25 -1
v -19 26 8
v -19 26 6
v -19 27 -1
v -19 27 -2
v -19 28 1
v -19 28 -0
v -19 28 -1
v -19 28 -2
v -19 29 1
v -19 29 -0
v -19 40 19
v -19 40 -19
v 20 0 20
v 20 0 -20
v 20 2 19
v 20 2 -19
v 20 19 6
v 20 19 5
v 20 19 4
v 20 19 3
v 20 21 6
v 20 21 5
v 20 21 4
v 20 21 3
v 20 22 6
v 20 22 5
v 20 23 -7
v 20 23 -8
v 20 24 6
v 20 24 5
v 20 24 -4
v 20 24 -5
v 20 24 -7
v 20 24 -8
v 20 25 -4
v 20 25 -5
v 20 25 -6
v 20 26 -4
v 20 26 -5
v 20 26 -6
v 20 26 -7
v 20 27 -4
v 20 27 -5
v 20 27 -6
v 20 27 -7
v 20 39 20
v 20 39 19
v 20 39 -19
v 20 39 -20
v 20 40 20
v 20 40 -20
v -20 0 20
v -20 39 20
v -20 40 20
v -19 3 20
v -19 39 20
v -10 17 20
v -10 18 20
v -10 19 20
v -10 20 20
v -9 19 20
v -9 20 20
v -9 21 20
v -8 17 20
v -8 18 20
v -8 19 20
v -8 20 20
v -8 21 20
v -7 19 20
v -7 20 20
v -1 22 20
v -1 23 20
v -1 25 20
v -1 26 20
v 0 22 20
v 0 23 20
v 1 26 20
v 1 27 20
v 2 25 20
v 2 27 20
v 19 3 20
v 19 39 20
v 20 0 20
v 20 39 20
v 20 40 20
v -19 2 -19
v -19 40 -19
v -14 21 -19
v -14 22 -19
v -13 21 -19
v -13 22 -19
v -13 23 -19
v -12 21 -19
v -12 22 -19
v -12 23 -19
v -11 21 -19
v -11 22 -19
v -3 19 -19
v -3 20 -19
v -2 17 -19
v -2 18 -19
v -2 19 -19
v -2 20 -19
v -2 21 -19
v -1 17 -19
v -1 18 -19
v -1 20 -19
v -1 21 -19
v 0 18 -19
v 0 19 -19
v 1 18 -19
v 1 19 -19
v 4 30 -19
v 4 31 -19
v 5 28 -19
v 5 29 -19
v 5 30 -19
v 5 31 -19
v 6 28 -19
v 6 29 -19
v 6 30 -19
v 6 31 -19
v 7 30 -19
v 7 31 -19
v 19 2 -19
v 19 40 -19
v -19 2 19
v -19 3 19
v -19 40 19
v -10 17 19
v -10 18 19
v -10 19 19
v -10 20 19
v -9 19 19
v -9 20 19
v -9 21 19
v -8 17 19
v -8 18 19
v -8 19 19
v -8 20 19
v -8 21 19
v -7 19 19
v -7 20 19
v -1 22 19
v -1 23 19
v -1 25 19
v -1 26 19
v 0 22 19
v 0 23 19
v 1 26 19
v 1 27 19
v 2 25 19
v 2 27 19
v 19 2 19
v 19 3 19
v 19 40 19
v -20 0 -20
v -20 39 -20
v -20 40 -20
v -19 2 -20
v -19 39 -20
v -14 21 -20
v -14 22 -20
v -13 21 -20
v -13 22 -20
v -13 23 -20
v -12 21 -20
v -12 22 -20
v -12 23 -20
v -11 21 -20
v -11 22 -20
v -3 19 -20
v -3 20 -20
v -2 17 -20
v -2 18 -20
v -2 19 -20
v -2 20 -20
v -2 21 -20
v -1 17 -20
v -1 18 -20
v -1 20 -20
v -1 21 -20
v 0 18 -20
v 0 19 -20
v 1 18 -20
v 1 19 -20
v 4 30 -20
v 4 31 -20
v 5 28 -20
v 5 29 -20
v 5 30 -20
v 5 31 -20
v 6 28 -20
v 6 29 -20
v 6 30 -20
v 6 31 -20
v 7 30 -20
v 7 31 -20
v 19 2 -20
v 19 39 -20
v 20 0 -20
v 20 39 -20
v 20 40 -20
v -20 0 20
v 20 0 20
v -20 0 -20
v 20 0 -20
v -19 2 19
v 19 2 19
v -19 2 -19
v 19 2 -19
v -20 40 20
v 20 40 20
v -19 40 19
v 19 40 19
v -19 40 -19
v 19 40 -19
v -20 40 -20
v 20 40 -20

# faces
f 3/2/1 2/2/1 1/2/1
f 4/2/1 2/2/1 3/2/1
f 5/2/1 3/2/1 1/2/1
f 6/4/1 4/4/1 3/4/1
f 6/2/1 3/2/1 5/2/1
f 7/2/1 2/2/1 4/2/1
f 7/4/1 4/4/1 6/4/1
f 8/2/1 2/2/1 7/2/1
f 9/3/1 6/3/1 5/3/1
f 9/3/1 7/3/1 6/3/1
f 9/3/1 8/3/1 7/3/1
f 10/3/1 8/3/1 9/3/1
f 11/3/1 9/3/1 5/3/1
f 12/3/1 9/3/1 11/3/1
f 13/1/1 10/1/1 9/1/1
f 13/3/1 9/3/1 12/3/1
f 14/3/1 8/3/1 10/3/1
f 14/1/1 10/1/1 13/1/1
f 15/3/1 8/3/1 14/3/1
f 16/3/1 8/3/1 15/3/1
f 17/1/1 12/1/1 11/1/1
f 17/3/1 11/3/1 5/3/1
f 18/3/1 13/3/1 12/3/1
f 18/1/1 12/1/1 17/1/1
f 18/3/1 14/3/1 13/3/1
f 18/3/1 15/3/1 14/3/1
f 19/3/1 15/3/1 18/3/1
f 20/3/1 15/3/1 19/3/1
f 21/1/1 16/1/1 15/1/1
f 21/3/1 15/3/1 20/3/1
f 22/3/1 8/3/1 16/3/1
f 22/1/1 16/1/1 21/1/1
f 23/3/1 17/3/1 5/3/1
f 23/3/1 18/3/1 17/3/1
f 23/3/1 19/3/1 18/3/1
f 24/3/1 19/3/1 23/3/1
f 25/1/1 20/1/1 19/1/1
f 25/3/1 19/3/1 24/3/1
f 26/3/1 21/3/1 20/3/1
f 26/1/1 20/1/1 25/1/1
f 26/3/1 22/3/1 21/3/1
f 27/1/1 24/1/1 23/1/1
f 27/3/1 23/3/1 5/3/1
f 28/3/1 25/3/1 24/3/1
f 28/1/1 24/1/1 27/1/1
f 28/3/1 26/3/1 25/3/1
f 29/3/1 22/3/1 26/3/1
f 29/3/1 26/3/1 28/3/1
f 29/3/1 28/3/1 27/3/1
f 30/3/1 22/3/1 29/3/1
f 31/3/1 29/3/1 27/3/1
f 32/3/1 29/3/1 31/3/1
f 33/1/1 30/1/1 29/1/1
f 33/3/1 29/3/1 32/3/1
f 34/3/1 22/3/1 30/3/1
f 34/1/1 30/1/1 33/1/1
f 35/1/1 32/1/1 31/1/1
f 35/3/1 31/3/1 27/3/1
f 36/3/1 33/3/1 32/3/1
f 36/1/1 32/1/1 35/1/1
f 36/3/1 34/3/1 33/3/1
f 37/2/1 5/2/1 1/2/1
f 38/3/1 27/3/1 5/3/1
f 38/2/1 5/2/1 37/2/1
f 38/3/1 35/3/1 27/3/1
f 38/3/1 36/3/1 35/3/1
f 39/2/1 2/2/1 8/2/1
f 39/3/1 36/3/1 38/3/1
f 39/3/1 34/3/1 36/3/1
f 39/3/1 22/3/1 34/3/1
f 39/3/1 8/3/1 22/3/1
f 40/2/1 2/2/1 39/2/1
f 41/3/1 38/3/1 37/3/1
f 41/3/1 39/3/1 38/3/1
f 41/3/1 40/3/1 39/3/1
f 42/3/1 40/3/1 41/3/1
f 45/3/1 44/3/1 43/3/1
f 46/3/1 44/3/1 45/3/1
f 47/3/1 44/3/1 46/3/1
f 48/3/1 44/3/1 47/3/1
f 49/3/1 44/3/1 48/3/1
f 50/3/1 46/3/1 45/3/1
f 50/1/1 47/1/1 46/1/1
f 51/3/1 48/3/1 47/3/1
f 51/1/1 47/1/1 50/1/1
f 52/1/1 49/1/1 48/1/1
f 52/3/1 48/3/1 51/3/1
f 53/3/1 44/3/1 49/3/1
f 53/1/1 49/1/1 52/1/1
f 54/3/1 52/3/1 51/3/1
f 54/3/1 51/3/1 50/3/1
f 54/3/1 53/3/1 52/3/1
f 54/3/1 50/3/1 45/3/1
f 55/3/1 53/3/1 54/3/1
f 56/3/1 44/3/1 53/3/1
f 56/3/1 53/3/1 55/3/1
f 57/3/1 44/3/1 56/3/1
f 58/1/1 55/1/1 54/1/1
f 58/3/1 54/3/1 45/3/1
f 59/3/1 56/3/1 55/3/1
f 59/1/1 55/1/1 58/1/1
f 60/3/1 56/3/1 59/3/1
f 61/3/1 56/3/1 60/3/1
f 62/1/1 57/1/1 56/1/1
f 62/3/1 56/3/1 61/3/1
f 63/3/1 44/3/1 57/3/1
f 63/1/1 57/1/1 62/1/1
f 64/1/1 61/1/1 60/1/1
f 64/3/1 59/3/1 58/3/1
f 64/3/1 60/3/1 59/3/1
f 65/3/1 62/3/1 61/3/1
f 65/1/1 61/1/1 64/1/1
f 65/3/1 63/3/1 62/3/1
f 66/3/1 63/3/1 65/3/1
f 67/3/1 64/3/1 58/3/1
f 67/3/1 65/3/1 64/3/1
f 68/1/1 66/1/1 65/1/1
f 68/3/1 65/3/1 67/3/1
f 69/3/1 63/3/1 66/3/1
f 69/1/1 66/1/1 68/1/1
f 70/3/1 63/3/1 69/3/1
f 71/1/1 68/1/1 67/1/1
f 71/3/1 67/3/1 58/3/1
f 72/3/1 69/3/1 68/3/1
f 72/1/1 68/1/1 71/1/1
f 73/1/1 70/1/1 69/1/1
f 73/3/1 69/3/1 72/3/1
f 74/3/1 63/3/1 70/3/1
f 74/1/1 70/1/1 73/1/1
f 75/3/1 73/3/1 72/3/1
f 75/3/1 58/3/1 45/3/1
f 75/3/1 74/3/1 73/3/1
f 75/3/1 71/3/1 58/3/1
f 75/3/1 72/3/1 71/3/1
f 76/3/1 63/3/1 74/3/1
f 76/3/1 74/3/1 75/3/1
f 76/3/1 44/3/1 63/3/1
f 77/3/2 78/3/2 79/3/2
f 79/3/2 78/3/2 80/3/2
f 80/3/2 78/3/2 81/3/2
f 79/3/2 80/3/2 82/3/2
f 82/3/2 80/3/2 83/3/2
f 80/1/2 81/1/2 84/1/2
f 83/3/2 80/3/2 84/3/2
f 81/3/2 78/3/2 85/3/2
f 84/1/2 81/1/2 85/1/2
f 85/3/2 78/3/2 86/3/2
f 86/3/2 78/3/2 87/3/2
f 82/1/2 83/1/2 88/1/2
f 79/3/2 82/3/2 88/3/2
f 83/3/2 84/3/2 89/3/2
f 88/1/2 83/1/2 89/1/2
f 84/3/2 85/3/2 89/3/2
f 85/3/2 86/3/2 89/3/2
f 89/3/2 86/3/2 90/3/2
f 90/3/2 86/3/2 91/3/2
f 86/1/2 87/1/2 92/1/2
f 91/3/2 86/3/2 92/3/2
f 87/3/2 78/3/2 93/3/2
f 92/1/2 87/1/2 93/1/2
f 79/3/2 88/3/2 94/3/2
f 88/3/2 89/3/2 94/3/2
f 89/3/2 90/3/2 94/3/2
f 94/3/2 90/3/2 95/3/2
f 90/1/2 91/1/2 96/1/2
f 95/3/2 90/3/2 96/3/2
f 91/3/2 92/3/2 97/3/2
f 96/1/2 91/1/2 97/1/2
f 92/3/2 93/3/2 97/3/2
f 94/1/2 95/1/2 98/1/2
f 79/3/2 94/3/2 98/3/2
f 95/3/2 96/3/2 99/3/2
f 98/1/2 95/1/2 99/1/2
f 96/3/2 97/3/2 99/3/2
f 97/3/2 93/3/2 100/3/2
f 99/3/2 97/3/2 100/3/2
f 98/3/2 99/3/2 100/3/2
f 100/3/2 93/3/2 101/3/2
f 98/3/2 100/3/2 102/3/2
f 102/3/2 100/3/2 103/3/2
f 100/1/2 101/1/2 104/1/2
f 103/3/2 100/3/2 104/3/2
f 101/3/2 93/3/2 105/3/2
f 104/1/2 101/1/2 105/1/2
f 102/1/2 103/1/2 106/1/2
f 98/3/2 102/3/2 106/3/2
f 103/3/2 104/3/2 107/3/2
f 106/1/2 103/1/2 107/1/2
f 104/3/2 105/3/2 107/3/2
f 79/3/2 98/3/2 108/3/2
f 98/3/2 106/3/2 108/3/2
f 106/3/2 107/3/2 108/3/2
f 93/3/2 78/3/2 109/3/2
f 108/3/2 107/3/2 109/3/2
f 107/3/2 105/3/2 109/3/2
f 105/3/2 93/3/2 109/3/2
f 110/2/2 111/2/2 112/2/2
f 112/2/2 111/2/2 113/2/2
f 112/3/2 113/3/2 114/3/2
f 114/3/2 113/3/2 115/3/2
f 115/3/2 113/3/2 116/3/2
f 116/3/2 113/3/2 117/3/2
f 112/3/2 114/3/2 118/3/2
f 114/1/2 115/1/2 118/1/2
f 115/3/2 116/3/2 119/3/2
f 118/1/2 115/1/2 119/1/2
f 116/1/2 117/1/2 120/1/2
f 119/3/2 116/3/2 120/3/2
f 117/3/2 113/3/2 121/3/2
f 120/1/2 117/1/2 121/1/2
f 119/3/2 120/3/2 122/3/2
f 118/3/2 119/3/2 122/3/2
f 120/3/2 121/3/2 122/3/2
f 112/3/2 118/3/2 122/3/2
f 122/3/2 121/3/2 123/3/2
f 121/3/2 113/3/2 124/3/2
f 123/3/2 121/3/2 124/3/2
f 124/3/2 113/3/2 125/3/2
f 122/1/2 123/1/2 126/1/2
f 112/3/2 122/3/2 126/3/2
f 123/3/2 124/3/2 127/3/2
f 126/1/2 123/1/2 127/1/2
f 127/3/2 124/3/2 128/3/2
f 128/3/2 124/3/2 129/3/2
f 124/1/2 125/1/2 130/1/2
f 129/3/2 124/3/2 130/3/2
f 125/3/2 113/3/2 131/3/2
f 130/1/2 125/1/2 131/1/2
f 128/1/2 129/1/2 132/1/2
f 126/3/2 127/3/2 132/3/2
f 127/3/2 128/3/2 132/3/2
f 129/3/2 130/3/2 133/3/2
f 132/1/2 129/1/2 133/1/2
f 130/3/2 131/3/2 133/3/2
f 133/3/2 131/3/2 134/3/2
f 126/3/2 132/3/2 135/3/2
f 132/3/2 133/3/2 135/3/2
f 133/1/2 134/1/2 136/1/2
f 135/3/2 133/3/2 136/3/2
f 134/3/2 131/3/2 137/3/2
f 136/1/2 134/1/2 137/1/2
f 137/3/2 131/3/2 138/3/2
f 135/1/2 136/1/2 139/1/2
f 126/3/2 135/3/2 139/3/2
f 136/3/2 137/3/2 140/3/2
f 139/1/2 136/1/2 140/1/2
f 137/1/2 138/1/2 141/1/2
f 140/3/2 137/3/2 141/3/2
f 138/3/2 131/3/2 142/3/2
f 141/1/2 138/1/2 142/1/2
f 110/2/2 112/2/2 143/2/2
f 140/3/2 141/3/2 144/3/2
f 143/2/2 112/2/2 144/2/2
f 112/3/2 126/3/2 144/3/2
f 141/3/2 142/3/2 144/3/2
f 126/3/2 139/3/2 144/3/2
f 139/3/2 140/3/2 144/3/2
f 142/3/2 131/3/2 145/3/2
f 144/3/2 142/3/2 145/3/2
f 113/2/2 111/2/2 145/2/2
f 131/3/2 113/3/2 145/3/2
f 145/2/2 111/2/2 146/2/2
f 143/3/2 144/3/2 147/3/2
f 144/3/2 145/3/2 147/3/2
f 145/3/2 146/3/2 147/3/2
f 147/3/2 146/3/2 148/3/2
f 152/2/3 150/2/3 149/2/3
f 153/3/3 151/3/3 150/3/3
f 153/2/3 150/2/3 152/2/3
f 154/3/3 153/3/3 152/3/3
f 155/3/3 153/3/3 154/3/3
f 156/3/3 153/3/3 155/3/3
f 157/3/3 153/3/3 156/3/3
f 158/3/3 156/3/3 155/3/3
f 158/1/3 157/1/3 156/1/3
f 159/3/3 153/3/3 157/3/3
f 159/1/3 157/1/3 158/1/3
f 160/3/3 153/3/3 159/3/3
f 161/3/3 154/3/3 152/3/3
f 161/1/3 155/1/3 154/1/3
f 162/3/3 158/3/3 155/3/3
f 162/1/3 155/1/3 161/1/3
f 162/3/3 159/3/3 158/3/3
f 163/3/3 159/3/3 162/3/3
f 164/1/3 160/1/3 159/1/3
f 164/3/3 159/3/3 163/3/3
f 165/3/3 153/3/3 160/3/3
f 165/1/3 160/1/3 164/1/3
f 166/1/3 164/1/3 163/1/3
f 166/3/3 163/3/3 162/3/3
f 166/3/3 162/3/3 161/3/3
f 167/3/3 165/3/3 164/3/3
f 167/1/3 164/1/3 166/1/3
f 168/3/3 153/3/3 165/3/3
f 168/3/3 165/3/3 167/3/3
f 168/3/3 167/3/3 166/3/3
f 169/3/3 153/3/3 168/3/3
f 170/3/3 153/3/3 169/3/3
f 171/3/3 153/3/3 170/3/3
f 172/3/3 168/3/3 166/3/3
f 172/1/3 169/1/3 168/1/3
f 173/3/3 170/3/3 169/3/3
f 173/1/3 169/1/3 172/1/3
f 174/3/3 153/3/3 171/3/3
f 174/1/3 171/1/3 170/1/3
f 175/3/3 153/3/3 174/3/3
f 176/3/3 170/3/3 173/3/3
f 176/3/3 173/3/3 172/3/3
f 176/1/3 175/1/3 174/1/3
f 176/1/3 174/1/3 170/1/3
f 177/3/3 153/3/3 175/3/3
f 177/1/3 175/1/3 176/1/3
f 178/2/3 152/2/3 149/2/3
f 178/3/3 161/3/3 152/3/3
f 178/3/3 177/3/3 176/3/3
f 178/3/3 172/3/3 166/3/3
f 178/3/3 176/3/3 172/3/3
f 178/3/3 166/3/3 161/3/3
f 179/3/3 153/3/3 177/3/3
f 179/3/3 177/3/3 178/3/3
f 179/3/3 151/3/3 153/3/3
f 180/2/3 178/2/3 149/2/3
f 180/2/3 179/2/3 178/2/3
f 181/3/3 151/3/3 179/3/3
f 181/2/3 179/2/3 180/2/3
f 182/3/3 151/3/3 181/3/3
f 185/3/3 184/3/3 183/3/3
f 186/3/3 184/3/3 185/3/3
f 187/3/3 185/3/3 183/3/3
f 187/1/3 186/1/3 185/1/3
f 188/3/3 184/3/3 186/3/3
f 188/1/3 186/1/3 187/1/3
f 189/3/3 184/3/3 188/3/3
f 190/3/3 187/3/3 183/3/3
f 190/3/3 188/3/3 187/3/3
f 191/1/3 189/1/3 188/1/3
f 191/3/3 188/3/3 190/3/3
f 192/3/3 184/3/3 189/3/3
f 192/1/3 189/1/3 191/1/3
f 193/1/3 191/1/3 190/1/3
f 193/3/3 190/3/3 183/3/3
f 194/3/3 192/3/3 191/3/3
f 194/1/3 191/1/3 193/1/3
f 195/3/3 193/3/3 183/3/3
f 195/3/3 194/3/3 193/3/3
f 196/3/3 194/3/3 195/3/3
f 197/3/3 195/3/3 183/3/3
f 198/3/3 195/3/3 197/3/3
f 199/1/3 196/1/3 195/1/3
f 199/3/3 195/3/3 198/3/3
f 200/3/3 194/3/3 196/3/3
f 200/1/3 196/1/3 199/1/3
f 201/3/3 194/3/3 200/3/3
f 202/1/3 198/1/3 197/1/3
f 202/3/3 197/3/3 183/3/3
f 203/3/3 199/3/3 198/3/3
f 203/1/3 198/1/3 202/1/3
f 203/3/3 200/3/3 199/3/3
f 204/1/3 201/1/3 200/1/3
f 204/3/3 200/3/3 203/3/3
f 205/3/3 194/3/3 201/3/3
f 205/1/3 201/1/3 204/1/3
f 206/3/3 204/3/3 203/3/3
f 206/3/3 203/3/3 202/3/3
f 206/3/3 205/3/3 204/3/3
f 207/3/3 205/3/3 206/3/3
f 208/3/3 206/3/3 202/3/3
f 208/1/3 207/1/3 206/1/3
f 209/3/3 205/3/3 207/3/3
f 209/1/3 207/1/3 208/1/3
f 210/3/3 184/3/3 192/3/3
f 210/3/3 205/3/3 209/3/3
f 210/3/3 209/3/3 208/3/3
f 210/3/3 192/3/3 194/3/3
f 210/3/3 194/3/3 205/3/3
f 211/3/3 184/3/3 210/3/3
f 212/3/3 210/3/3 208/3/3
f 213/3/3 210/3/3 212/3/3
f 214/1/3 211/1/3 210/1/3
f 214/3/3 210/3/3 213/3/3
f 215/3/3 184/3/3 211/3/3
f 215/1/3 211/1/3 214/1/3
f 216/1/3 213/1/3 212/1/3
f 216/3/3 212/3/3 208/3/3
f 217/3/3 214/3/3 213/3/3
f 217/1/3 213/1/3 216/1/3
f 217/3/3 215/3/3 214/3/3
f 218/3/3 215/3/3 217/3/3
f 219/3/3 184/3/3 215/3/3
f 219/3/3 215/3/3 218/3/3
f 220/3/3 218/3/3 217/3/3
f 220/3/3 217/3/3 216/3/3
f 220/1/3 219/1/3 218/1/3
f 221/3/3 184/3/3 219/3/3
f 221/1/3 219/1/3 220/1/3
f 222/3/3 208/3/3 202/3/3
f 222/3/3 202/3/3 183/3/3
f 222/3/3 221/3/3 220/3/3
f 222/3/3 220/3/3 216/3/3
f 222/3/3 216/3/3 208/3/3
f 223/3/3 184/3/3 221/3/3
f 223/3/3 221/3/3 222/3/3
f 225/3/4 226/3/4 227/3/4
f 227/3/4 226/3/4 228/3/4
f 228/3/4 226/3/4 229/3/4
f 229/3/4 226/3/4 230/3/4
f 228/3/4 229/3/4 231/3/4
f 229/1/4 230/1/4 231/1/4
f 230/3/4 226/3/4 232/3/4
f 231/1/4 230/1/4 232/1/4
f 232/3/4 226/3/4 233/3/4
f 225/3/4 227/3/4 234/3/4
f 227/1/4 228/1/4 234/1/4
f 228/3/4 231/3/4 235/3/4
f 234/1/4 228/1/4 235/1/4
f 231/3/4 232/3/4 235/3/4
f 235/3/4 232/3/4 236/3/4
f 232/1/4 233/1/4 237/1/4
f 236/3/4 232/3/4 237/3/4
f 233/3/4 226/3/4 238/3/4
f 237/1/4 233/1/4 238/1/4
f 236/1/4 237/1/4 239/1/4
f 235/3/4 236/3/4 239/3/4
f 234/3/4 235/3/4 239/3/4
f 237/3/4 238/3/4 240/3/4
f 239/1/4 237/1/4 240/1/4
f 238/3/4 226/3/4 241/3/4
f 240/3/4 238/3/4 241/3/4
f 239/3/4 240/3/4 241/3/4
f 241/3/4 226/3/4 242/3/4
f 242/3/4 226/3/4 243/3/4
f 243/3/4 226/3/4 244/3/4
f 239/3/4 241/3/4 245/3/4
f 241/1/4 242/1/4 245/1/4
f 242/3/4 243/3/4 246/3/4
f 245/1/4 242/1/4 246/1/4
f 244/3/4 226/3/4 247/3/4
f 243/1/4 244/1/4 247/1/4
f 247/3/4 226/3/4 248/3/4
f 246/3/4 243/3/4 249/3/4
f 245/3/4 246/3/4 249/3/4
f 247/1/4 248/1/4 249/1/4
f 243/1/4 247/1/4 249/1/4
f 248/3/4 226/3/4 250/3/4
f 249/1/4 248/1/4 250/1/4
f 224/2/4 225/2/4 251/2/4
f 225/3/4 234/3/4 252/3/4
f 251/2/4 225/2/4 252/2/4
f 234/3/4 239/3/4 252/3/4
f 249/3/4 250/3/4 252/3/4
f 239/3/4 245/3/4 252/3/4
f 245/3/4 249/3/4 252/3/4
f 250/3/4 226/3/4 253/3/4
f 252/3/4 250/3/4 253/3/4
f 254/2/4 255/2/4 257/2/4
f 255/3/4 256/3/4 258/3/4
f 257/2/4 255/2/4 258/2/4
f 257/3/4 258/3/4 259/3/4
f 259/3/4 258/3/4 260/3/4
f 257/3/4 259/3/4 261/3/4
f 259/1/4 260/1/4 261/1/4
f 260/3/4 258/3/4 262/3/4
f 261/1/4 260/1/4 262/1/4
f 262/3/4 258/3/4 263/3/4
f 257/3/4 261/3/4 264/3/4
f 261/3/4 262/3/4 264/3/4
f 262/1/4 263/1/4 265/1/4
f 264/3/4 262/3/4 265/3/4
f 263/3/4 258/3/4 266/3/4
f 265/1/4 263/1/4 266/1/4
f 264/1/4 265/1/4 267/1/4
f 257/3/4 264/3/4 267/3/4
f 265/3/4 266/3/4 268/3/4
f 267/1/4 265/1/4 268/1/4
f 257/3/4 267/3/4 269/3/4
f 267/3/4 268/3/4 269/3/4
f 269/3/4 268/3/4 270/3/4
f 257/3/4 269/3/4 271/3/4
f 271/3/4 269/3/4 272/3/4
f 269/1/4 270/1/4 273/1/4
f 272/3/4 269/3/4 273/3/4
f 270/3/4 268/3/4 274/3/4
f 273/1/4 270/1/4 274/1/4
f 274/3/4 268/3/4 275/3/4
f 271/1/4 272/1/4 276/1/4
f 257/3/4 271/3/4 276/3/4
f 272/3/4 273/3/4 277/3/4
f 276/1/4 272/1/4 277/1/4
f 273/3/4 274/3/4 277/3/4
f 274/1/4 275/1/4 278/1/4
f 277/3/4 274/3/4 278/3/4
f 275/3/4 268/3/4 279/3/4
f 278/1/4 275/1/4 279/1/4
f 277/3/4 278/3/4 280/3/4
f 276/3/4 277/3/4 280/3/4
f 278/3/4 279/3/4 280/3/4
f 280/3/4 279/3/4 281/3/4
f 276/3/4 280/3/4 282/3/4
f 280/1/4 281/1/4 282/1/4
f 281/3/4 279/3/4 283/3/4
f 282/1/4 281/1/4 283/1/4
f 266/3/4 258/3/4 284/3/4
f 283/3/4 279/3/4 284/3/4
f 282/3/4 283/3/4 284/3/4
f 268/3/4 266/3/4 284/3/4
f 279/3/4 268/3/4 284/3/4
f 284/3/4 258/3/4 285/3/4
f 282/3/4 284/3/4 286/3/4
f 286/3/4 284/3/4 287/3/4
f 284/1/4 285/1/4 288/1/4
f 287/3/4 284/3/4 288/3/4
f 285/3/4 258/3/4 289/3/4
f 288/1/4 285/1/4 289/1/4
f 286/1/4 287/1/4 290/1/4
f 282/3/4 286/3/4 290/3/4
f 287/3/4 288/3/4 291/3/4
f 290/1/4 287/1/4 291/1/4
f 288/3/4 289/3/4 291/3/4
f 291/3/4 289/3/4 292/3/4
f 289/3/4 258/3/4 293/3/4
f 292/3/4 289/3/4 293/3/4
f 291/3/4 292/3/4 294/3/4
f 290/3/4 291/3/4 294/3/4
f 292/1/4 293/1/4 294/1/4
f 293/3/4 258/3/4 295/3/4
f 294/1/4 293/1/4 295/1/4
f 254/2/4 257/2/4 296/2/4
f 276/3/4 282/3/4 296/3/4
f 294/3/4 295/3/4 296/3/4
f 290/3/4 294/3/4 296/3/4
f 282/3/4 290/3/4 296/3/4
f 257/3/4 276/3/4 296/3/4
f 295/3/4 258/3/4 297/3/4
f 296/3/4 295/3/4 297/3/4
f 258/3/4 256/3/4 297/3/4
f 254/2/4 296/2/4 298/2/4
f 296/2/4 297/2/4 298/2/4
f 297/3/4 256/3/4 299/3/4
f 298/2/4 297/2/4 299/2/4
f 299/3/4 256/3/4 300/3/4
f 303/2/5 302/2/5 301/2/5
f 304/2/5 302/2/5 303/2/5
f 305/4/6 306/4/6 307/4/6
f 307/4/6 306/4/6 308/4/6
f 309/3/6 310/3/6 311/3/6
f 311/3/6 310/3/6 312/3/6
f 309/3/6 311/3/6 313/3/6
f 312/3/6 310/3/6 314/3/6
f 309/3/6 313/3/6 315/3/6
f 313/3/6 314/3/6 315/3/6
f 314/3/6 310/3/6 316/3/6
f 315/3/6 314/3/6 316/3/6
